<svg width="134" height="134" fill="none" xmlns="http://www.w3.org/2000/svg"><path d="M.447 67v66.553h133.106V.447H.447V67m64.096-53.488v7.928H43.55v22.11H21.44V64.543H5.583V5.583h58.96v7.929m63.874 21.551v29.48H112.56V21.44H69.457V5.583h58.96v29.48m-20.994 20.994v29.48H90.45V43.55H48.463V26.577h58.96v29.48M85.537 77.943v29.48h-16.08v-42.88h-42.88v-16.08h58.96v29.48M64.543 98.937v29.48H5.583v-58.96h58.96v29.48m63.874 0v29.48h-58.96V112.56H90.45V90.45h22.11V69.457h15.857v29.48" fill-rule="evenodd" fill="#000"/></svg>