<svg width="134" height="134" fill="none" xmlns="http://www.w3.org/2000/svg"><path d="M3.052.596c-.082.081-.149.684-.149 1.34v1.191H.446l.056 63.929.056 63.929 1.162.067 1.161.067.067 1.161.067 1.162h127.97l.067-1.162.067-1.161 1.161-.067 1.162-.067.056-65.269.056-65.269H68.378C32.531.447 3.134.514 3.052.596M128.417 67v61.417H112.56V21.44H5.583V5.583h122.834V67m-20.994 10.497v50.92H91.567V42.433H5.583V26.577h101.84v50.92M86.43 87.993v40.424H70.573v-64.99H5.583V47.57H86.43v40.423M65.437 98.49v29.927H5.583V68.563h59.854V98.49" fill-rule="evenodd" fill="#000"/></svg>