<svg width="134" height="134" fill="none" xmlns="http://www.w3.org/2000/svg"><path d="M.447 67v66.553h133.106V.447H.447V67m64.99-53.488v7.928H44.443V42.433H23.45v20.994H5.583V5.583h59.854v7.929m62.98 0v7.928H70.573V5.583h57.844v7.929m0 20.993v7.928H49.58V26.577H128.417v7.928m0 21.562v8.497l-9.436-.134c-13.608-.193-76.972-.78-84.24-.78h-6.154V47.57h99.83v8.497M76.715 69.01c24.198.242 45.73.441 47.849.443l3.853.004v58.96H5.583V68.563l13.568.004c7.462.002 33.366.201 57.564.443" fill-rule="evenodd" fill="#000"/></svg>